<?xml version="1.0" encoding="UTF-8" standalone="no"?>
<svg width="1600" height="900" viewBox="0 0 1600 900" version="1.1" xmlns="http://www.w3.org/2000/svg">
  <defs>
    <linearGradient id="bg-gradient" x1="0%" y1="0%" x2="100%" y2="100%">
      <stop offset="0%" style="stop-color:#e0f2ff;stop-opacity:1" />
      <stop offset="100%" style="stop-color:#d7e9fc;stop-opacity:1" />
    </linearGradient>
    <linearGradient id="wave-gradient1" x1="0%" y1="0%" x2="100%" y2="0%">
      <stop offset="0%" style="stop-color:#6366f1;stop-opacity:0.3" />
      <stop offset="100%" style="stop-color:#8b5cf6;stop-opacity:0.1" />
    </linearGradient>
    <linearGradient id="wave-gradient2" x1="0%" y1="0%" x2="100%" y2="0%">
      <stop offset="0%" style="stop-color:#8b5cf6;stop-opacity:0.2" />
      <stop offset="100%" style="stop-color:#6366f1;stop-opacity:0.05" />
    </linearGradient>
    <linearGradient id="wave-gradient3" x1="0%" y1="0%" x2="100%" y2="0%">
      <stop offset="0%" style="stop-color:#6366f1;stop-opacity:0.1" />
      <stop offset="100%" style="stop-color:#8b5cf6;stop-opacity:0.15" />
    </linearGradient>
  </defs>
  
  <!-- Background -->
  <rect width="1600" height="900" fill="url(#bg-gradient)" />
  
  <!-- Decorative elements -->
  <g opacity="0.3">
    <circle cx="200" cy="150" r="60" fill="#6366f1" opacity="0.1" />
    <circle cx="1400" cy="250" r="80" fill="#8b5cf6" opacity="0.1" />
    <circle cx="400" cy="700" r="100" fill="#6366f1" opacity="0.05" />
    <circle cx="1200" cy="600" r="70" fill="#8b5cf6" opacity="0.07" />
  </g>
  
  <!-- Wave 1 -->
  <path d="M0,250 C100,220 200,290 300,260 C400,230 500,200 600,230 C700,260 800,290 900,260 C1000,230 1100,200 1200,230 C1300,260 1400,290 1500,260 C1550,245 1575,235 1600,250 L1600,900 L0,900 Z" 
        fill="url(#wave-gradient1)" />
  
  <!-- Wave 2 -->
  <path d="M0,350 C100,320 200,390 300,360 C400,330 500,300 600,330 C700,360 800,390 900,360 C1000,330 1100,300 1200,330 C1300,360 1400,390 1500,360 C1550,345 1575,335 1600,350 L1600,900 L0,900 Z" 
        fill="url(#wave-gradient2)" />
  
  <!-- Wave 3 -->
  <path d="M0,450 C100,420 200,490 300,460 C400,430 500,400 600,430 C700,460 800,490 900,460 C1000,430 1100,400 1200,430 C1300,460 1400,490 1500,460 C1550,445 1575,435 1600,450 L1600,900 L0,900 Z" 
        fill="url(#wave-gradient3)" />
  
  <!-- Subtle patterns -->
  <g opacity="0.2">
    <path d="M100,100 Q150,150 200,100 Q250,50 300,100" stroke="#6366f1" fill="none" stroke-width="2" />
    <path d="M1200,200 Q1250,250 1300,200 Q1350,150 1400,200" stroke="#8b5cf6" fill="none" stroke-width="2" />
    <path d="M300,700 Q350,750 400,700 Q450,650 500,700" stroke="#6366f1" fill="none" stroke-width="2" />
    <path d="M1000,600 Q1050,650 1100,600 Q1150,550 1200,600" stroke="#8b5cf6" fill="none" stroke-width="2" />
  </g>
</svg>