<?xml version="1.0" encoding="UTF-8" standalone="no"?>
<svg width="1600" height="900" viewBox="0 0 1600 900" version="1.1" xmlns="http://www.w3.org/2000/svg">
  <defs>
    <linearGradient id="bg-gradient" x1="0%" y1="0%" x2="100%" y2="100%">
      <stop offset="0%" style="stop-color:#f0f9ff;stop-opacity:1" />
      <stop offset="100%" style="stop-color:#e0f2fe;stop-opacity:1" />
    </linearGradient>
    <linearGradient id="circle-gradient1" x1="0%" y1="0%" x2="100%" y2="100%">
      <stop offset="0%" style="stop-color:#818cf8;stop-opacity:0.2" />
      <stop offset="100%" style="stop-color:#c4b5fd;stop-opacity:0.1" />
    </linearGradient>
    <linearGradient id="circle-gradient2" x1="0%" y1="0%" x2="100%" y2="100%">
      <stop offset="0%" style="stop-color:#c4b5fd;stop-opacity:0.15" />
      <stop offset="100%" style="stop-color:#818cf8;stop-opacity:0.05" />
    </linearGradient>
    <pattern id="dots-pattern" x="0" y="0" width="40" height="40" patternUnits="userSpaceOnUse">
      <circle cx="20" cy="20" r="2" fill="#6366f1" opacity="0.2" />
    </pattern>
  </defs>
  
  <!-- Background -->
  <rect width="1600" height="900" fill="url(#bg-gradient)" />
  
  <!-- Pattern overlay -->
  <rect width="1600" height="900" fill="url(#dots-pattern)" />
  
  <!-- Abstract shapes -->
  <g>
    <!-- Top left -->
    <circle cx="200" cy="150" r="180" fill="url(#circle-gradient1)" opacity="0.6" />
    <circle cx="200" cy="150" r="120" fill="url(#circle-gradient2)" opacity="0.4" />
    <circle cx="200" cy="150" r="60" fill="#ffffff" opacity="0.3" />
    
    <!-- Bottom right -->
    <circle cx="1400" cy="750" r="200" fill="url(#circle-gradient2)" opacity="0.6" />
    <circle cx="1400" cy="750" r="140" fill="url(#circle-gradient1)" opacity="0.4" />
    <circle cx="1400" cy="750" r="80" fill="#ffffff" opacity="0.3" />
    
    <!-- Middle -->
    <circle cx="800" cy="450" r="100" fill="url(#circle-gradient1)" opacity="0.3" />
    <circle cx="800" cy="450" r="50" fill="url(#circle-gradient2)" opacity="0.2" />
  </g>
  
  <!-- Flowing lines -->
  <g opacity="0.4">
    <path d="M0,300 C200,250 400,350 600,300 C800,250 1000,350 1200,300 C1400,250 1600,350 1600,300"
          stroke="#6366f1" fill="none" stroke-width="2" opacity="0.2" />
    <path d="M0,350 C200,400 400,300 600,350 C800,400 1000,300 1200,350 C1400,400 1600,300 1600,350"
          stroke="#8b5cf6" fill="none" stroke-width="2" opacity="0.15" />
    <path d="M0,400 C200,350 400,450 600,400 C800,350 1000,450 1200,400 C1400,350 1600,450 1600,400"
          stroke="#6366f1" fill="none" stroke-width="2" opacity="0.1" />
  </g>
</svg>